<?xml version="1.0" standalone="no"?>
<!DOCTYPE svg PUBLIC "-//W3C//DTD SVG 20010904//EN"
 "http://www.w3.org/TR/2001/REC-SVG-20010904/DTD/svg10.dtd">
<svg version="1.0" xmlns="http://www.w3.org/2000/svg"
 width="504.000000pt" height="130.000000pt" viewBox="0 0 504.000000 130.000000"
 preserveAspectRatio="xMidYMid meet">

<g transform="translate(0.000000,130.000000) scale(0.100000,-0.100000)"
fill="#000000" stroke="none">
<path d="M312 1281 c-144 -42 -251 -154 -294 -310 -31 -114 -20 -210 39 -323
44 -83 113 -150 201 -191 62 -30 75 -32 172 -32 97 0 110 3 173 32 169 80 277
280 248 461 -24 147 -101 261 -223 327 -103 56 -204 68 -316 36z m242 -143
c25 -12 46 -25 46 -28 0 -3 -38 -43 -85 -90 l-85 -85 -85 85 c-47 47 -85 87
-85 90 0 10 57 40 96 50 56 13 145 4 198 -22z m-284 -363 c-46 -47 -88 -85
-92 -85 -14 0 -48 113 -48 164 0 57 20 137 41 162 11 13 24 3 98 -70 l86 -86
-85 -85z m445 171 c8 -27 15 -64 15 -82 0 -51 -19 -127 -38 -152 l-17 -22 -85
85 -85 85 85 85 c96 96 97 96 125 1z m-197 -251 c45 -47 82 -87 82 -90 0 -2
-19 -15 -42 -27 -62 -33 -194 -33 -255 0 -24 12 -43 26 -43 29 0 9 162 173
170 173 3 0 42 -38 88 -85z"/>
<path d="M4092 1235 c-132 -57 -204 -217 -189 -419 12 -166 62 -260 165 -313
58 -30 72 -33 150 -33 157 0 239 63 276 213 l6 27 -64 0 -64 0 -7 -32 c-18
-83 -60 -118 -140 -118 -65 0 -103 23 -128 78 -20 43 -22 63 -22 237 0 183 1
192 24 232 44 76 151 95 212 37 27 -26 49 -88 49 -138 0 -25 2 -26 65 -26 l65
0 0 125 0 125 -39 0 c-31 0 -41 -4 -46 -20 -8 -26 -16 -25 -78 10 -47 26 -63
30 -128 30 -42 -1 -89 -7 -107 -15z"/>
<path d="M880 1201 c0 -24 5 -31 29 -36 16 -3 38 -18 48 -33 16 -24 18 -55 21
-284 3 -248 3 -257 -17 -277 -12 -12 -32 -21 -46 -21 -22 0 -25 -4 -25 -35 l0
-35 145 0 145 0 0 35 c0 30 -3 35 -23 35 -12 0 -33 7 -45 16 -22 15 -22 19
-22 241 l0 227 215 -287 215 -288 0 335 0 335 26 20 c15 12 35 21 45 21 14 0
19 7 19 30 l0 30 -140 0 -140 0 0 -29 c0 -24 5 -30 30 -34 54 -11 61 -36 58
-218 l-3 -163 -134 184 c-74 102 -141 202 -150 222 l-16 38 -117 0 -118 0 0
-29z"/>
<path d="M1660 1201 c0 -23 5 -30 29 -34 61 -13 61 -12 61 -308 0 -256 -1
-270 -20 -289 -11 -11 -31 -20 -45 -20 -22 0 -25 -4 -25 -35 l0 -35 245 0 245
0 0 105 0 105 -29 0 c-25 0 -30 -5 -36 -32 -19 -85 -59 -114 -147 -106 -73 7
-78 18 -78 165 l0 123 58 0 c67 0 98 -17 107 -60 5 -25 11 -30 36 -30 l29 0 0
125 0 125 -29 0 c-25 0 -31 -5 -36 -30 -9 -43 -40 -60 -107 -60 l-58 0 0 113
c0 140 8 151 101 152 55 0 63 -3 88 -31 16 -18 31 -48 35 -72 6 -38 9 -42 36
-42 l30 0 0 100 0 100 -245 0 -245 0 0 -29z"/>
<path d="M2430 1202 c0 -25 5 -30 32 -36 56 -11 58 -17 58 -157 0 -128 0 -129
-31 -172 -25 -35 -32 -58 -36 -108 -4 -55 -1 -71 21 -112 30 -55 27 -67 -15
-67 -27 0 -29 -3 -29 -35 l0 -36 148 3 147 3 0 30 c0 25 -5 30 -35 36 -56 12
-60 24 -60 209 l0 166 29 17 c16 9 36 32 45 51 27 58 20 102 -28 155 l-21 24
57 -6 c104 -10 146 -65 135 -174 -10 -95 -55 -133 -159 -133 l-52 0 30 -31
c28 -30 31 -31 102 -26 61 3 80 9 115 33 63 44 90 101 91 188 1 86 -19 126
-83 171 l-43 30 -209 3 -209 3 0 -29z m240 -94 c28 -47 25 -82 -10 -120 l-29
-33 -1 93 c0 100 8 112 40 60z m-152 -445 l-3 -58 -18 37 c-22 47 -22 98 0
146 l17 37 4 -52 c2 -29 2 -78 0 -110z"/>
<path d="M3000 1200 c0 -23 5 -30 19 -30 10 0 30 -9 45 -21 l26 -20 0 -270 c0
-256 -1 -270 -20 -289 -11 -11 -31 -20 -45 -20 -22 0 -25 -4 -25 -35 l0 -35
145 0 145 0 0 34 c0 28 -4 34 -27 39 -60 13 -58 4 -61 293 -3 294 -1 306 58
319 25 5 30 11 30 36 l0 29 -145 0 -145 0 0 -30z"/>
<path d="M3350 1201 c0 -25 5 -30 35 -35 19 -4 39 -15 45 -26 6 -11 10 -126
10 -289 0 -268 0 -270 -22 -285 -12 -9 -33 -16 -45 -16 -20 0 -23 -5 -23 -35
l0 -35 248 2 247 3 3 103 3 102 -35 0 c-32 0 -35 -2 -41 -41 -10 -59 -41 -90
-97 -96 -55 -6 -90 1 -112 23 -13 12 -16 40 -16 140 l0 124 60 0 c51 0 65 -4
85 -25 14 -13 25 -33 25 -45 0 -16 6 -20 30 -20 l30 0 0 125 0 125 -30 0 c-23
0 -30 -5 -30 -19 0 -10 -9 -30 -21 -45 -18 -23 -27 -26 -85 -26 l-64 0 0 110
c0 96 3 113 19 129 27 27 84 36 133 22 32 -10 43 -20 59 -54 10 -23 19 -52 19
-65 0 -20 4 -23 33 -20 l32 3 3 98 3 97 -251 0 -250 0 0 -29z"/>
<path d="M4540 1200 c0 -25 4 -30 25 -30 14 0 37 -11 50 -25 23 -22 25 -31 25
-126 0 -92 -2 -101 -17 -94 -40 16 -54 17 -78 1 -72 -48 -12 -151 66 -111 l29
16 0 -114 c0 -100 -3 -118 -20 -140 -11 -14 -33 -27 -48 -29 -23 -3 -27 -8
-27 -33 l0 -30 248 -3 247 -2 0 105 0 105 -34 0 c-32 0 -34 -2 -39 -42 -9 -64
-51 -98 -121 -98 -38 0 -61 6 -77 19 -22 18 -24 27 -27 135 l-4 116 76 0 c70
0 76 -2 76 -20 0 -12 -7 -34 -15 -50 -9 -17 -11 -30 -6 -30 20 0 79 61 86 88
3 15 14 35 22 45 14 15 14 19 2 35 -8 9 -23 34 -33 55 -16 31 -69 77 -89 77
-3 0 4 -17 16 -38 32 -60 21 -74 -60 -70 l-68 3 0 113 c0 101 2 115 19 128 50
36 152 24 182 -21 9 -13 18 -42 21 -65 5 -38 8 -40 39 -40 l34 0 0 100 0 100
-250 0 -250 0 0 -30z m60 -315 c15 -18 5 -35 -20 -35 -23 0 -32 13 -24 34 8
20 28 21 44 1z"/>
<path d="M1271 298 c-54 -28 -81 -75 -81 -138 0 -115 109 -190 213 -147 39 17
63 42 47 52 -5 3 -22 -3 -36 -14 -70 -55 -181 -3 -191 90 -7 57 18 114 58 134
37 20 99 19 128 -1 15 -11 26 -13 33 -6 15 15 -34 44 -85 49 -31 3 -54 -2 -86
-19z"/>
<path d="M2785 306 c-41 -18 -83 -69 -91 -111 -25 -133 104 -234 231 -181 l35
15 0 70 0 71 -50 0 c-38 0 -50 -4 -50 -15 0 -10 11 -15 35 -15 l35 0 0 -49 c0
-56 -6 -61 -80 -61 -37 0 -55 6 -79 26 -62 51 -62 157 0 208 35 30 112 36 145
11 25 -19 34 -19 34 1 0 19 -59 44 -102 44 -18 -1 -47 -7 -63 -14z"/>
<path d="M1632 293 c-8 -15 -50 -112 -109 -250 -12 -29 -11 -33 3 -33 9 0 23
17 32 40 l17 40 78 0 79 0 15 -40 c11 -26 22 -40 34 -40 20 0 26 -17 -74 215
-34 81 -57 102 -75 68z m79 -150 c8 -22 7 -23 -56 -23 -36 0 -65 2 -65 4 0 2
9 26 21 53 11 26 26 59 31 73 10 24 11 23 35 -30 14 -30 29 -65 34 -77z"/>
<path d="M1890 160 c0 -127 2 -150 15 -150 12 0 15 15 15 71 l0 70 27 -3 c21
-2 35 -17 67 -70 27 -44 47 -68 59 -68 12 0 16 4 11 12 -4 7 -23 36 -41 65
-37 58 -40 73 -18 73 25 0 55 38 55 70 0 19 -9 40 -25 55 -21 22 -33 25 -95
25 l-70 0 0 -150z m145 110 c8 -7 15 -23 15 -36 0 -37 -26 -54 -81 -54 l-49 0
0 56 0 57 50 -5 c27 -3 56 -11 65 -18z"/>
<path d="M2190 160 l0 -150 65 0 c120 0 181 44 191 137 11 102 -57 163 -183
163 l-73 0 0 -150z m171 103 c73 -43 71 -158 -4 -208 -12 -8 -48 -17 -80 -21
l-57 -7 0 133 0 133 56 -7 c31 -4 69 -14 85 -23z"/>
<path d="M3167 278 c-8 -18 -31 -71 -52 -118 -69 -160 -66 -150 -47 -150 10 0
24 16 34 40 l17 40 75 0 76 0 20 -40 c11 -22 27 -40 35 -40 17 0 19 -7 -55
165 -61 141 -79 159 -103 103z m65 -85 c15 -37 28 -69 28 -70 0 -2 -29 -3 -65
-3 -36 0 -65 2 -65 4 0 2 11 28 23 57 13 30 27 63 31 73 9 25 14 18 48 -61z"/>
<path d="M3430 160 c0 -125 2 -150 15 -150 12 0 15 23 17 128 l3 127 52 -125
c28 -69 57 -125 63 -125 6 0 26 36 44 80 18 44 42 100 53 125 l21 45 1 -127
c1 -107 3 -128 16 -128 13 0 15 23 15 150 l0 150 -24 0 c-20 0 -28 -12 -59
-87 -20 -49 -42 -103 -48 -120 -6 -18 -14 -33 -17 -33 -4 0 -29 54 -56 120
-43 106 -51 120 -72 120 l-24 0 0 -150z"/>
<path d="M3860 160 l0 -150 95 0 c116 0 128 18 14 22 l-81 3 -2 58 -1 57 73 0
c56 0 72 3 72 15 0 11 -17 15 -71 17 l-72 3 0 50 0 50 77 3 c107 4 96 22 -14
22 l-90 0 0 -150z"/>
</g>
</svg>
